<svg width="81" height="35" fill="none" xmlns="http://www.w3.org/2000/svg"><path d="M40.496 25.472a8.43 8.43 0 100-16.86 8.43 8.43 0 000 16.86z" stroke="#6C78D6" stroke-width="2" stroke-miterlimit="10"/><path d="M21 12.5L32.5 15m27-2.5L48 15m-27 6.5L32.5 19m27 2.5L48 19" stroke="#6C78D6" stroke-width="2"/><path d="M33.995 22.34C27.613 26.555 18.1 32.456 14.487 33.3 8.707 34.624 1 33.78 1 25.592V9.215C1 1.025 8.827.183 14.487 1.508c3.492.843 12.524 6.502 19.027 10.717m13.49 10.115C53.386 26.555 62.9 32.456 66.512 33.3 72.292 34.624 80 33.78 80 25.592V9.215c0-8.19-7.827-9.032-13.487-7.707C62.9 2.59 53.868 8.13 47.486 12.345" stroke="#6C78D6" stroke-width="2" stroke-miterlimit="10"/></svg>