<svg width="88" height="64" fill="none" xmlns="http://www.w3.org/2000/svg"><path d="M52.26 23.01h-9.936c-2.005 0-3.66 1.657-3.66 3.749v.436c0 3.312 2.701 6.014 6.013 6.014h7.583a2.436 2.436 0 002.44-2.44v-5.143c0-1.482-1.045-2.615-2.44-2.615zm34.427-6.362H9.549V7.932a2.436 2.436 0 012.44-2.44h72.257a2.436 2.436 0 012.441 2.44v8.716z" stroke="#6C78D6" stroke-width="2" stroke-miterlimit="10"/><path d="M86.689 16.474v4.706a2.436 2.436 0 01-2.44 2.44H62.284a2.436 2.436 0 00-2.44 2.441v6.45c0 2.877-2.354 5.23-5.23 5.23H43.63c-1.917-.174-3.835-.697-5.578-1.656-.523-.262-1.133-.174-1.482.261-.523.698-.958 1.482-1.133 2.354l-.087.174c-.349.697-.349 1.569-.087 2.353v.088c.523 1.743-.436 3.66-2.18 4.27a2.838 2.838 0 00-1.22 2.615c.436.96.524 2.005.175 2.964-.436.959-1.22 1.743-2.18 2.092-.87.697-1.132 1.917-.61 2.876.785.959 1.744 2.963.262 4.707-.697.784-1.743 1.307-2.876 1.22H5.542a4.643 4.643 0 01-3.574-1.656c-.871-1.046-1.133-2.44-.871-3.748 1.133-4.707 3.225-9.326 6.188-13.336a47.471 47.471 0 004.881-8.716c.872-2.092 1.57-4.27 2.005-6.537.436-2.528-1.133-4.968-3.574-5.665a10.98 10.98 0 00-.871-.262c-.785-.174-1.395-.697-1.744-1.395-.261-.697-.261-1.568.175-2.266l1.22-1.917M17 6l1.946-5h4.613L25 6" stroke="#6C78D6" stroke-width="2" stroke-miterlimit="10"/></svg>