<svg width="51" height="17" fill="none" xmlns="http://www.w3.org/2000/svg"><path d="M.919 8l-.6-1.7c-.1-.1-.1-.3-.1-.5l.3-1.8c.1-.5.5-.9 1-.9h2.8l3.9-1.2c2.2-.6 4.4-1.1 6.7-1.4 2.2-.3 4.4-.5 6.7-.5h.2c2.5 0 4.9.3 7.3 1 2.3.7 4.5 1.6 6.5 2.9 9 .1 13.9 2.9 14.1 3.1.3.1.5.5.5.8v5c0 .5-.4.9-.9 1l-3.6.5c.1-.4.2-.8.2-1.3 0-3.1-2.5-5.6-5.6-5.6-3.1 0-5.6 2.5-5.6 5.6 0 .5.1 1 .2 1.5h-19.2c.1-.5.2-1 .2-1.5 0-3.1-2.5-5.6-5.6-5.6-3.1 0-5.6 2.5-5.6 5.6 0 .3 0 .6.1.8l-4.1-1.4c-.5-.2-.8-.7-.7-1.1l.9-3.3z" fill="#424DA2"/><path d="M10.419 9.5c2 0 3.6 1.6 3.6 3.6s-1.6 3.6-3.6 3.6-3.6-1.6-3.6-3.6c.1-2.1 1.7-3.6 3.6-3.6zm30 0c2 0 3.6 1.6 3.6 3.6 0 .5-.1 1-.3 1.5-.6 1.2-1.8 2.1-3.2 2.1-1.4 0-2.7-.9-3.2-2.1-.2-.4-.3-.9-.3-1.5-.2-2.1 1.4-3.6 3.4-3.6z" fill="#424DA2"/></svg>