<svg width="23" height="25" fill="none" xmlns="http://www.w3.org/2000/svg"><path d="M9.68 9.775h3.643l-1.82-3.546L9.68 9.775z" fill="#424DA2"/><path d="M20.125 0H2.875C1.245 0 0 1.246 0 2.875v13.417c0 1.629 1.246 2.875 2.875 2.875h7.38l8.912 5.462v-5.462h.958c1.63 0 2.875-1.246 2.875-2.875V2.875C23 1.245 21.754 0 20.125 0zm-3.45 14.47c-.48.192-1.054 0-1.246-.383l-1.15-2.3H8.72l-1.15 2.3c-.19.48-.766.671-1.245.384-.48-.192-.67-.767-.383-1.246l4.791-9.583c.096-.096.192-.288.384-.384.479-.287 1.054-.095 1.341.384l4.792 9.583c.096.48-.096 1.054-.575 1.246z" fill="#424DA2"/></svg>