<svg width="33" height="22" fill="none" xmlns="http://www.w3.org/2000/svg"><path d="M3.763.535c.213-.15.253-.51.553-.53.277-.038.519.149.653.374.074.108.17.216.312.22a26.93 26.93 0 001.88.1C14.107.697 21.054.579 28.002.584c.678.01 1.355-.029 2.032-.055.336-.015.741-.107.868-.461.153.02.324.008.457.102.19.129.35.313.582.374.15.054.322.064.454.16.1.14.093.327.183.472.131.12.319.202.358.393.12.437.032.894.028 1.34-.013.242.015.497-.079.727-.064.132-.256.15-.309.284-.037.317.08.625.072.94.004.392-.16.759-.18 1.148-.038.243-.016.538-.228.71-.287.249-.68.312-1.044.376-.99.138-1.994.074-2.991.06-.835.022-1.669.017-2.502.073-.73-.005-1.493-.052-2.179.245-.387.196-.811.48-.883.941-.116.607-.063 1.23-.017 1.841.036.488.155.963.26 1.44.037.219.066.507-.137.657-.13.068-.282.07-.423.091-.632.056-1.264.11-1.898.097-1.016.035-2.03.084-3.046.122-.293.008-.587.044-.879.004-.354-.05-.729-.003-1.06-.16-.311-.138-.61-.362-.97-.32-.502.047-1.066.163-1.38.593-.212.309-.402.641-.504 1.004-.115.41.004.834-.01 1.25.003.215-.182.354-.342.464a2.138 2.138 0 00-.913 1.364c-.088.424.057.856-.024 1.28-.07.308-.422.384-.612.597-.24.276-.464.592-.528.96-.06.416.023.837-.016 1.254-.175.233-.494.192-.741.277-.249.117-.183.44-.301.644-.123.152-.344.123-.518.128-.54-.028-1.083-.014-1.621-.077-1.017-.074-2.037-.097-3.048-.225-.68-.085-1.362-.157-2.04-.25-.016-.2-.074-.42.035-.604.077-.132.157-.263.216-.404-.646-.258-1.324-.508-1.834-1-.166-.17-.342-.394-.277-.648.088-.512.248-1.01.428-1.495.525-1.066.999-2.159 1.59-3.19.375-.676.861-1.287 1.196-1.985.233-.483.501-.95.697-1.45.186-.515.454-1.003.541-1.548.128-.49.234-1.01.069-1.504-.183-.663-.72-1.199-1.372-1.412-.379-.152-.807-.132-1.176-.308-.267-.206-.206-.614-.083-.888a3.03 3.03 0 00.254-1.297c.007-.855-.004-1.713.08-2.564 0-.247.232-.423.464-.439.353-.038.756.05 1.061-.177zm13.169 7.104c-.075.233-.014.482.04.713.218.844.599 1.633.938 2.433-.392.046-.806-.036-1.11-.296-.554-.461-.806-1.178-.949-1.86a11.105 11.105 0 00-.56-.005c-.01.588.002 1.176-.004 1.764-.008.436.346.773.695.985.276.164.598.265.923.244.947-.041 1.892-.118 2.837-.186.456-.036.946-.123 1.293-.445.318-.287.438-.726.45-1.14.007-.36.022-.72.003-1.077-.027-.425-.342-.759-.665-1.003-.37-.269-.85-.204-1.279-.218-.744-.031-1.488-.098-2.232-.08-.137.01-.33.012-.38.17z" fill="#424DA2"/></svg>