<svg width="96" height="74" fill="none" xmlns="http://www.w3.org/2000/svg"><path d="M68.65 72.352H5.137A4.135 4.135 0 011 68.214V29.671a4.135 4.135 0 014.137-4.137H68.65a4.136 4.136 0 014.137 4.137v38.616c-.072 2.25-1.887 4.065-4.137 4.065z" stroke="#6C78D6" stroke-width="2" stroke-miterlimit="10"/><path d="M12.178 21.614v-4.282a4.135 4.135 0 014.138-4.137h63.512a4.135 4.135 0 014.137 4.137v38.615a4.135 4.135 0 01-4.137 4.138h-2.54" stroke="#6C78D6" stroke-width="2" stroke-miterlimit="10" stroke-linecap="round"/><path d="M23.213 9.42V5.137A4.135 4.135 0 0127.35 1h63.513A4.135 4.135 0 0195 5.137v38.616a4.135 4.135 0 01-4.137 4.137h-2.54" stroke="#6C78D6" stroke-width="2" stroke-miterlimit="10" stroke-linecap="round"/><path d="M19.44 59.069c5.572 0 10.09-4.518 10.09-10.09s-4.518-10.09-10.09-10.09S9.35 43.408 9.35 48.98s4.518 10.09 10.09 10.09zm17.783-17.711h18.8m-18.8 7.622h25.332M37.223 56.6h25.332" stroke="#6C78D6" stroke-width="2" stroke-miterlimit="10"/></svg>