<svg width="68" height="80" fill="none" xmlns="http://www.w3.org/2000/svg"><path d="M34.073 1h22.583c0 .364.218 3.497 2.695 6.63C62.338 11.416 67 11.562 67 11.562v28.92c0 7.504-2.477 13.113-11.728 22.729C45.582 73.192 34 78.219 34 78.219s-11.656-5.027-21.271-15.007C3.476 53.742 1 48.06 1 40.629V11.71s4.662-.219 7.649-3.934c2.55-3.133 2.695-6.338 2.695-6.63h22.729" stroke="#6C78D6" stroke-width="2" stroke-miterlimit="10"/><path d="M34.076 8.94h17.92c0 .292.146 2.769 2.186 5.245 2.404 2.987 6.119 3.133 6.119 3.133v23.02c0 5.973-1.967 10.417-9.325 17.993-7.721 8.013-16.9 12.02-16.9 12.02s-9.252-4.007-16.9-11.947C9.744 50.828 7.85 46.384 7.85 40.411V17.39s3.715-.146 6.119-3.133c2.04-2.476 2.185-5.026 2.185-5.245h17.92" stroke="#6C78D6" stroke-width="2" stroke-miterlimit="10"/><path d="M33.707 48.861L22.27 36.331a3.041 3.041 0 01.219-4.37 3.041 3.041 0 014.37.218l6.921 7.576 10.854-11.801c1.166-1.238 3.133-1.311 4.371-.146 1.238 1.166 1.311 3.133.146 4.371L33.707 48.861z" stroke="#6C78D6" stroke-width="2" stroke-miterlimit="10"/></svg>