<svg width="75" height="73" fill="none" xmlns="http://www.w3.org/2000/svg"><path d="M36.66 19.342H7.937v23.154H36.66V19.342zm28.918-.977l8.401 1.954v21.2l-8.401 1.954M7.936 39.467L1 37.807V23.932l6.936-1.66" stroke="#6C78D6" stroke-width="2" stroke-miterlimit="10"/><path d="M36.66 42.398c15.046 1.368 25.5 14.46 28.235 18.171.195.294.684.098.684-.195V1.366c0-.391-.489-.489-.684-.196-2.638 3.713-13.19 16.804-28.234 18.172M13.7 42.398L22.885 72h13.678L26.89 42.398" stroke="#6C78D6" stroke-width="2" stroke-miterlimit="10"/><path d="M36.658 41.519v5.666c0 2.638-2.15 4.69-4.69 4.69h-2.15" stroke="#6C78D6" stroke-width="2" stroke-miterlimit="10"/></svg>