<svg width="82" height="82" fill="none" xmlns="http://www.w3.org/2000/svg"><path d="M5.3 76.4l-3.9-4 16.2-18-2.9-2.9 8.7-8.6-3.2-3.2L69.6 2l5.1 5M17.6 54.4l4.9 4.9m.9-16.4l7.7 7.7M5.3 76.4l4 4 18-16.3 2.9 2.9 8.6-8.6 3.2 3.1 37.8-49.4L74.7 7M27.3 64.1l-4.8-4.8m16.3-.9l-7.7-7.8M14.4 35.2c1-3.8 3-7.4 6-10.3 3.3-3.3 7.4-5.4 11.8-6.3M7.7 33.4c1.1-5.2 3.6-10 7.4-13.8 4.3-4.3 9.8-6.9 15.8-7.8M1 32.1c1.3-6.6 4.3-12.7 9.1-17.5 5.4-5.4 12.4-8.5 20.1-9.5m16.3 62.2c3.8-1 7.4-3 10.3-6 3.3-3.3 5.4-7.4 6.3-11.8M48.4 74c5.2-1.1 10-3.6 13.8-7.4 4.3-4.3 6.9-9.8 7.8-15.8M49.6 80.7c6.6-1.3 12.7-4.3 17.5-9.1 5.4-5.4 8.5-12.4 9.6-20" stroke="#6C78D6" stroke-width="2" stroke-miterlimit="10"/></svg>