<svg width="89" height="78" fill="none" xmlns="http://www.w3.org/2000/svg"><path d="M58.603 26.9h-28.4l-6.5 35h41.4l-6.5-35zm18.5 49.9h-65.4V69c0-3.9 3.2-7.1 7.1-7.1h51.2c3.9 0 7.1 3.2 7.1 7.1v7.8z" stroke="#6C78D6" stroke-width="2" stroke-miterlimit="10" stroke-linecap="round"/><path d="M40.902 61.9V46.1c0-1.9 1.6-3.5 3.5-3.5s3.5 1.6 3.5 3.5v15.8M20.8 69.3h47.1M13.8 44.4H1m16.5-14.7L6.3 23.6m22.8-5.7L22.7 6.8m21.7 7V1m30.503 43.4h12.8m-16.5-14.7l11.2-6.1m-22.7-5.7l6.4-11.1" stroke="#6C78D6" stroke-width="2" stroke-miterlimit="10" stroke-linecap="round"/></svg>