<svg width="81" height="81" fill="none" xmlns="http://www.w3.org/2000/svg"><path d="M30.99 31.884c2.35-2.574 5.706-4.252 9.51-4.252 7.05 0 12.869 5.707 12.869 12.868A12.8 12.8 0 0140.5 53.368c-5.819 0-10.742-3.916-12.31-9.287" stroke="#6C78D6" stroke-width="2" stroke-miterlimit="10"/><path d="M21.59 22.149a26.364 26.364 0 0118.911-7.945c14.547 0 26.296 11.75 26.296 26.296 0 14.547-11.75 26.408-26.296 26.408-14.547 0-26.296-11.861-26.296-26.408 0-3.133.56-6.154 1.567-8.952" stroke="#6C78D6" stroke-width="2" stroke-miterlimit="10"/><path d="M12.637 12.637A39.141 39.141 0 0140.5 1C62.32 1 80 18.68 80 40.5S62.32 80 40.5 80 1 62.32 1 40.5c0-6.714 1.678-12.98 4.588-18.575M38.153 38.15L9.283 9.057" stroke="#6C78D6" stroke-width="2" stroke-miterlimit="10"/><path d="M40.836 43.97a3.469 3.469 0 100-6.939 3.469 3.469 0 000 6.938z" stroke="#6C78D6" stroke-width="2" stroke-miterlimit="10"/></svg>