<svg width="124" height="33" fill="none" xmlns="http://www.w3.org/2000/svg"><path d="M23.18 13.05c0 .96.99 1.71 2.97 2.25.74.16 1.36.33 1.86.51.52.16 1.08.41 1.68.75.62.34 1.09.79 1.41 1.35.32.56.48 1.22.48 1.98 0 1.36-.53 2.45-1.59 3.27-1.06.82-2.4 1.23-4.02 1.23-1.44 0-2.69-.31-3.75-.93-1.04-.64-1.78-1.5-2.22-2.58l2.25-1.29c.24.72.69 1.29 1.35 1.71.66.42 1.45.63 2.37.63.9 0 1.62-.17 2.16-.51.54-.34.81-.85.81-1.53 0-1.02-.99-1.76-2.97-2.22-.66-.18-1.16-.32-1.5-.42-.34-.1-.81-.28-1.41-.54-.58-.26-1.02-.53-1.32-.81-.3-.3-.58-.69-.84-1.17-.24-.5-.36-1.05-.36-1.65 0-1.3.5-2.37 1.5-3.21 1.02-.84 2.29-1.26 3.81-1.26 1.22 0 2.3.28 3.24.84.96.54 1.68 1.3 2.16 2.28l-2.19 1.23c-.54-1.28-1.61-1.92-3.21-1.92-.76 0-1.4.18-1.92.54-.5.36-.75.85-.75 1.47zm25.03 4.65H35.64c.26 1.32.87 2.36 1.83 3.12.96.74 2.16 1.11 3.6 1.11 1.98 0 3.42-.73 4.32-2.19L47.61 21c-1.48 2.26-3.68 3.39-6.6 3.39-2.36 0-4.3-.74-5.82-2.22-1.48-1.52-2.22-3.41-2.22-5.67 0-2.28.73-4.16 2.19-5.64 1.46-1.5 3.35-2.25 5.67-2.25 2.2 0 3.99.78 5.37 2.34 1.4 1.52 2.1 3.38 2.1 5.58 0 .38-.03.77-.09 1.17zm-7.38-6.63c-1.38 0-2.54.39-3.48 1.17-.92.78-1.49 1.84-1.71 3.18h10.02c-.22-1.38-.77-2.45-1.65-3.21-.88-.76-1.94-1.14-3.18-1.14zm17.041 13.32c-2.26 0-4.14-.75-5.64-2.25-1.5-1.52-2.25-3.4-2.25-5.64 0-2.24.75-4.11 2.25-5.61 1.5-1.52 3.38-2.28 5.64-2.28 1.48 0 2.81.36 3.99 1.08 1.18.7 2.06 1.65 2.64 2.85l-2.19 1.26c-.38-.8-.97-1.44-1.77-1.92-.78-.48-1.67-.72-2.67-.72-1.5 0-2.76.51-3.78 1.53-1 1.04-1.5 2.31-1.5 3.81 0 1.48.5 2.74 1.5 3.78 1.02 1.02 2.28 1.53 3.78 1.53 1 0 1.9-.23 2.7-.69.8-.48 1.41-1.12 1.83-1.92l2.22 1.29a7.345 7.345 0 01-2.79 2.85c-1.2.7-2.52 1.05-3.96 1.05zm19.256-7.44V9h2.61v15h-2.61v-2.16c-1.04 1.7-2.66 2.55-4.86 2.55-1.76 0-3.17-.55-4.23-1.65-1.06-1.12-1.59-2.63-1.59-4.53V9h2.61v9.06c0 1.2.33 2.14.99 2.82.66.68 1.57 1.02 2.73 1.02 1.34 0 2.4-.41 3.18-1.23.78-.84 1.17-2.08 1.17-3.72zM85.87 9v2.52c.86-1.86 2.42-2.79 4.68-2.79v2.73c-1.28-.06-2.38.28-3.3 1.02-.92.74-1.38 1.93-1.38 3.57V24h-2.61V9h2.61zm8.105-2.73c-.5 0-.92-.17-1.26-.51-.34-.34-.51-.75-.51-1.23s.17-.89.51-1.23c.34-.36.76-.54 1.26-.54.48 0 .89.18 1.23.54.34.34.51.75.51 1.23s-.17.89-.51 1.23c-.34.34-.75.51-1.23.51zM95.265 24h-2.61V9h2.61v15zm11.691-15v2.52h-3.99v8.13c0 .74.14 1.27.42 1.59.3.3.75.46 1.35.48.6 0 1.34-.02 2.22-.06V24c-2.3.3-3.98.11-5.04-.57-1.04-.68-1.56-1.94-1.56-3.78v-8.13h-2.97V9h2.97V5.58l2.61-.78V9h3.99zm9.113 11.76L120.389 9h2.79l-6.12 15.93c-.66 1.7-1.57 2.99-2.73 3.87-1.14.9-2.45 1.3-3.93 1.2v-2.43c1.84.14 3.19-.88 4.05-3.06l.27-.57L108.179 9h2.79l5.1 11.76z" fill="#fff"/><path d="M28.721 32.065h-4.535l-2.61-7.191H7.145l-2.611 7.191H0L11.956 0h4.81L28.72 32.065zM14.338 5.085L8.612 20.888H20.11L14.338 5.085z" fill="#5F32FF"/></svg>