<svg width="381" height="97" fill="none" xmlns="http://www.w3.org/2000/svg"><path d="M380.5 53c0 2.881-1.262 5.734-3.745 8.536-2.485 2.805-6.174 5.535-10.965 8.152-9.582 5.233-23.481 9.96-40.699 13.938C290.664 91.576 243.079 96.5 190.5 96.5c-52.579 0-100.164-4.923-134.591-12.874C38.69 79.648 24.792 74.92 15.21 69.688c-4.791-2.617-8.48-5.347-10.965-8.152C1.762 58.734.5 55.881.5 53c0-2.881 1.262-5.734 3.745-8.536 2.485-2.805 6.174-5.535 10.965-8.152 9.582-5.233 23.481-9.96 40.699-13.937C90.336 14.423 137.92 9.5 190.5 9.5c52.579 0 100.164 4.923 134.591 12.875 17.218 3.976 31.117 8.704 40.699 13.937 4.791 2.617 8.48 5.347 10.965 8.152 2.483 2.802 3.745 5.655 3.745 8.536z" stroke="#6C78D6"/><path d="M380.5 44c0 2.881-1.262 5.734-3.745 8.536-2.485 2.805-6.174 5.535-10.965 8.152-9.582 5.233-23.481 9.96-40.699 13.938C290.664 82.576 243.079 87.5 190.5 87.5c-52.579 0-100.164-4.923-134.591-12.874C38.69 70.648 24.792 65.92 15.21 60.688c-4.791-2.617-8.48-5.347-10.965-8.152C1.762 49.734.5 46.881.5 44c0-2.881 1.262-5.734 3.745-8.536 2.485-2.805 6.174-5.535 10.965-8.152 9.582-5.233 23.481-9.96 40.699-13.938C90.336 5.423 137.92.5 190.5.5c52.579 0 100.164 4.923 134.591 12.874 17.218 3.977 31.117 8.705 40.699 13.938 4.791 2.616 8.48 5.347 10.965 8.152 2.483 2.802 3.745 5.655 3.745 8.536z" stroke="#6C78D6"/></svg>