<svg width="42" height="19" fill="none" xmlns="http://www.w3.org/2000/svg"><path d="M20.89 13.324a4.245 4.245 0 100-8.49 4.245 4.245 0 000 8.49z" stroke="#6C78D6" stroke-width="1.4" stroke-miterlimit="10"/><path d="M17.617 11.747c-3.215 2.123-8.005 5.094-9.825 5.519-2.91.667-6.792.242-6.792-3.881V5.137C1 1.013 4.942.589 7.792 1.256c1.759.424 6.307 3.274 9.582 5.397m6.794 5.094c3.214 2.123 8.005 5.094 9.824 5.519 2.911.667 6.793.242 6.793-3.881V5.137c0-4.124-3.942-4.548-6.793-3.881-1.819.545-6.367 3.335-9.581 5.458" stroke="#6C78D6" stroke-width="1.4" stroke-miterlimit="10"/></svg>